<?xml version="1.0" standalone="no"?>
<!DOCTYPE svg PUBLIC "-//W3C//DTD SVG 20010904//EN"
 "http://www.w3.org/TR/2001/REC-SVG-20010904/DTD/svg10.dtd">
<svg version="1.0" xmlns="http://www.w3.org/2000/svg"
 width="259.000000pt" height="194.000000pt" viewBox="0 0 259.000000 194.000000"
 preserveAspectRatio="xMidYMid meet">

<g transform="translate(0.000000,194.000000) scale(0.100000,-0.100000)"
fill="#000000" stroke="none">
<path d="M354 1422 c-12 -7 -26 -129 -28 -243 -2 -97 12 -109 119 -109 93 0
96 2 118 75 14 50 7 105 -14 105 -5 0 -9 18 -9 40 0 30 -5 42 -17 46 -10 3
-28 11 -41 17 -16 7 -26 7 -33 0 -21 -21 -48 -3 -51 35 -3 37 -21 50 -44 34z
m36 -102 l5 -93 38 -20 38 -20 -20 -19 c-12 -10 -21 -26 -21 -36 1 -12 5 -9
15 10 8 15 24 29 35 33 29 9 25 21 -12 31 -22 7 -34 17 -36 31 -3 20 0 21 40
16 82 -11 91 -18 86 -66 -3 -24 -11 -56 -19 -73 -14 -28 -17 -29 -88 -32 -114
-5 -115 -2 -106 178 4 80 9 149 12 153 3 4 10 6 16 4 8 -2 14 -39 17 -97z m90
-21 c0 -28 -4 -39 -12 -37 -14 5 -23 51 -14 74 10 27 26 4 26 -37z m-46 25 c9
-24 7 -54 -4 -54 -5 0 -10 -7 -10 -15 0 -8 -4 -15 -10 -15 -11 0 -14 83 -3 93
11 11 20 8 27 -9z m94 -32 c2 -24 -1 -32 -12 -32 -12 0 -16 10 -16 36 0 45 24
42 28 -4z"/>
<path d="M799 1372 l-59 -59 2 -119 2 -119 3 115 c4 113 4 115 35 147 27 28
39 33 79 33 49 0 72 -15 48 -31 -8 -5 -29 -9 -48 -9 -19 0 -42 -7 -52 -16 -17
-15 -17 -19 -3 -47 9 -16 20 -51 24 -76 l8 -46 1 38 c0 21 -6 54 -14 74 -11
27 -12 39 -4 49 17 21 49 17 49 -5 0 -10 8 -29 19 -42 10 -13 21 -33 24 -44 4
-19 5 -18 6 2 0 12 10 24 21 28 11 3 25 15 30 26 6 11 21 19 36 19 l25 0 -30
-42 c-39 -57 -79 -94 -121 -112 -19 -8 -29 -15 -22 -16 6 0 12 -9 12 -20 0
-11 5 -20 10 -20 6 0 10 11 10 24 0 16 7 27 20 31 22 7 98 89 120 129 12 24
12 28 0 36 -23 15 -39 12 -58 -11 -38 -46 -82 -44 -82 3 0 19 35 57 53 58 4 0
18 9 30 20 34 33 13 54 -58 58 l-57 3 -59 -59z m175 32 c5 -12 2 -15 -10 -10
-8 3 -36 6 -60 6 -24 0 -44 5 -44 10 0 6 24 10 54 10 40 0 55 -4 60 -16z m-24
-29 c0 -17 -11 -20 -25 -6 -6 6 -30 11 -55 14 -38 3 -36 4 18 5 49 2 62 -1 62
-13z"/>
<path d="M1229 1373 l-59 -56 2 -121 2 -121 3 115 c4 113 4 115 35 147 41 42
93 45 128 8 18 -19 21 -28 12 -37 -9 -9 -16 -8 -30 5 -23 21 -60 22 -83 1 -16
-15 -16 -18 3 -61 11 -25 18 -58 16 -74 -3 -16 -1 -29 4 -29 13 0 9 68 -7 107
-11 27 -12 39 -4 49 15 18 49 18 49 0 0 -8 11 -36 25 -62 17 -33 25 -41 25
-26 0 12 11 29 24 38 16 10 26 27 28 47 2 21 9 33 21 35 14 3 17 -4 17 -38 0
-33 -8 -51 -37 -88 -42 -52 -54 -61 -98 -79 -16 -6 -24 -12 -17 -12 6 -1 12
-11 13 -23 l1 -23 6 23 c4 12 18 28 31 35 14 7 44 36 68 65 38 46 43 59 43
102 0 38 -4 50 -15 50 -8 0 -15 6 -15 13 0 28 -55 67 -94 67 -32 0 -46 -8 -97
-57z m154 19 c34 -36 24 -49 -11 -16 -15 13 -39 24 -54 24 -16 0 -28 5 -28 10
0 6 15 10 33 10 23 0 41 -8 60 -28z m-25 -18 c12 -8 22 -22 22 -31 0 -13 -5
-12 -25 7 -13 13 -42 26 -62 30 l-38 8 40 1 c22 0 51 -6 63 -15z m11 -105
c-17 -13 -27 -15 -36 -7 -19 15 -16 28 6 28 10 0 25 7 32 17 13 15 14 15 18
-2 2 -11 -7 -26 -20 -36z"/>
<path d="M1747 1423 c-4 -3 -7 -18 -8 -32 l-1 -26 -10 28 c-10 28 -26 33 -56
18 -9 -5 -25 -12 -35 -15 -17 -5 -18 -16 -13 -108 6 -136 16 -208 27 -208 5 0
9 18 9 40 0 33 3 38 17 33 11 -4 14 -3 9 5 -4 7 -14 12 -21 12 -21 0 -35 33
-35 79 0 44 12 51 52 30 18 -10 24 -8 37 7 14 17 18 18 32 6 14 -12 13 -16
-13 -42 -15 -16 -28 -37 -28 -47 0 -13 6 -8 20 15 11 18 28 36 38 40 9 4 17
14 17 22 0 9 11 16 27 18 57 7 42 -99 -20 -132 -19 -11 -22 -15 -9 -16 13 0
17 -8 17 -35 0 -19 4 -35 8 -35 5 0 7 13 4 29 -3 19 5 44 23 76 22 37 26 53
20 83 -3 20 -6 52 -5 70 1 52 -8 72 -35 72 -13 0 -27 5 -30 10 -7 11 -28 13
-38 3z m41 -63 c3 -51 -9 -77 -30 -64 -10 6 -11 108 -1 118 16 16 28 -4 31
-54z m-75 35 c4 -8 2 -17 -3 -20 -13 -8 -13 -52 0 -60 13 -8 3 -25 -16 -25
-10 0 -14 14 -14 53 0 30 3 57 7 60 10 11 20 8 26 -8z m117 -41 c0 -59 -24
-55 -28 4 -2 33 0 42 12 42 12 0 16 -11 16 -46z m-165 -10 c0 -28 -4 -39 -15
-39 -16 0 -26 45 -16 72 11 28 31 7 31 -33z m75 1 c0 -8 -7 -15 -15 -15 -8 0
-15 7 -15 15 0 8 7 15 15 15 8 0 15 -7 15 -15z"/>
<path d="M2127 1408 c-77 -16 -87 -62 -61 -275 3 -29 10 -53 15 -53 15 0 10
83 -6 104 -20 26 -21 123 -1 107 7 -6 34 -14 59 -17 l46 -7 -19 -25 c-11 -13
-20 -32 -19 -41 0 -11 3 -10 9 5 5 12 22 31 39 43 37 27 41 58 9 63 -15 2 -24
11 -26 26 -3 20 0 22 25 16 68 -16 78 -26 81 -80 2 -43 -1 -56 -23 -82 -19
-23 -25 -40 -23 -73 l1 -44 4 39 c3 23 15 52 29 69 19 23 24 40 24 87 0 32 -4
62 -10 65 -5 3 -10 17 -10 31 0 15 -7 27 -17 30 -10 3 -26 10 -35 15 -20 10
-26 10 -91 -3z m81 -21 c2 -12 -3 -17 -17 -17 -12 0 -21 6 -21 13 0 31 32 34
38 4z m-50 -48 c0 -50 -3 -60 -16 -57 -12 2 -16 15 -17 53 0 58 2 65 20 65 9
0 13 -17 13 -61z m99 36 c3 -9 3 -18 1 -21 -9 -9 -38 8 -38 22 0 19 29 18 37
-1z m-149 -37 c-2 -24 -7 -43 -13 -43 -5 0 -11 19 -13 43 -3 33 0 42 13 42 13
0 16 -9 13 -42z m94 -50 c-9 -9 -15 -9 -24 0 -9 9 -7 12 12 12 19 0 21 -3 12
-12z"/>
<path d="M455 850 c-4 -6 -11 -7 -17 -4 -5 4 -20 2 -31 -4 -12 -6 -29 -12 -38
-15 -31 -10 -51 -182 -26 -221 9 -13 17 -43 20 -67 l4 -44 1 50 c1 30 -4 58
-13 69 -9 11 -15 41 -15 68 0 48 0 48 28 42 15 -4 36 -15 48 -25 11 -11 26
-19 32 -19 18 0 14 -15 -8 -35 -11 -10 -20 -23 -20 -29 0 -6 8 -1 18 10 9 12
28 27 42 34 l25 13 -35 12 c-19 6 -36 19 -38 28 -3 14 5 17 46 17 55 0 69 -10
78 -58 5 -22 1 -39 -15 -60 -15 -21 -20 -43 -19 -74 l1 -43 4 39 c3 22 14 53
25 69 23 33 25 59 8 102 -7 17 -13 52 -14 78 -1 47 -2 49 -41 63 -48 17 -43
16 -50 4z m-15 -66 c0 -25 -4 -43 -9 -40 -5 4 -12 0 -14 -6 -3 -7 -6 10 -6 38
-1 28 2 54 5 57 14 14 24 -6 24 -49z m50 6 c0 -38 -4 -50 -15 -50 -11 0 -15
12 -15 50 0 38 4 50 15 50 11 0 15 -12 15 -50z m48 -9 c3 -37 1 -42 -15 -39
-19 3 -30 46 -19 75 11 28 31 7 34 -36z m-143 -7 c0 -28 -4 -39 -15 -39 -16 0
-26 45 -16 72 11 28 31 7 31 -33z"/>
<path d="M2216 848 c-11 -6 -37 -13 -59 -15 -22 -2 -44 -6 -51 -10 -6 -4 -15
-8 -21 -9 -5 0 -16 -2 -23 -2 -10 -2 -12 -24 -8 -104 6 -136 16 -208 27 -208
15 0 10 83 -6 104 -8 11 -15 38 -15 59 0 39 0 39 31 33 17 -3 40 -6 51 -6 19
0 19 -1 4 -25 -9 -13 -16 -32 -16 -42 0 -11 7 -5 18 16 9 19 33 43 52 53 20
10 27 18 17 18 -14 0 -17 9 -17 54 0 35 5 58 15 66 13 11 15 8 15 -21 0 -19
11 -56 25 -83 31 -62 31 -88 0 -117 -20 -19 -24 -33 -23 -69 l1 -45 4 39 c3
23 15 52 29 69 26 31 31 66 13 99 -8 15 -8 26 1 43 18 33 9 89 -15 94 -11 2
-22 7 -25 11 -3 5 -14 4 -24 -2z m-28 -86 c2 -51 0 -62 -13 -62 -12 0 -15 13
-15 66 0 48 3 65 13 62 7 -3 13 -28 15 -66z m90 39 c2 -12 1 -29 -2 -38 -9
-22 -36 2 -36 32 0 41 32 47 38 6z m-138 -41 c0 -47 -3 -60 -15 -60 -12 0 -15
13 -15 60 0 47 3 60 15 60 12 0 15 -13 15 -60z m-42 1 c2 -20 -2 -37 -9 -42
-21 -12 -29 -1 -29 42 0 33 3 40 18 37 11 -2 18 -14 20 -37z"/>
<path d="M775 838 c-2 -7 -6 -42 -9 -78 -3 -36 -8 -99 -11 -140 -6 -68 -5 -78
15 -103 21 -27 24 -28 108 -25 85 3 87 3 101 33 23 47 26 118 7 134 -10 8 -16
29 -16 53 0 28 -5 40 -17 44 -10 3 -28 11 -41 17 -16 7 -26 7 -33 0 -19 -19
-49 -3 -49 26 0 41 -44 72 -55 39z m45 -98 l5 -93 37 -19 c36 -19 36 -20 17
-39 -10 -10 -19 -27 -19 -36 1 -13 5 -11 15 9 8 15 24 29 35 33 29 9 25 21
-12 31 -23 7 -34 17 -36 32 -3 19 0 22 20 18 13 -3 40 -8 60 -11 46 -7 57 -36
38 -98 -18 -63 -24 -67 -106 -67 -108 0 -108 0 -99 179 4 81 9 150 12 154 3 4
10 6 16 4 8 -2 14 -39 17 -97z m90 -21 c0 -28 -4 -39 -12 -37 -14 5 -23 51
-14 74 10 27 26 4 26 -37z m-50 2 c0 -15 -7 -36 -15 -47 -13 -18 -14 -16 -15
27 0 25 3 49 6 52 12 12 24 -4 24 -32z m98 -9 c2 -23 -1 -32 -12 -32 -21 0
-29 17 -22 46 9 34 30 25 34 -14z"/>
<path d="M1235 771 c-6 -19 -14 -21 -71 -21 -61 0 -64 -1 -64 -24 0 -27 16
-36 64 -36 19 0 33 -5 34 -12 4 -44 11 -71 20 -77 5 -3 11 -15 13 -26 5 -25
36 -33 141 -34 108 -1 118 8 118 115 0 99 -26 120 -171 131 -72 5 -77 5 -84
-16z m212 -27 c25 -19 28 -28 31 -84 4 -90 -11 -110 -86 -110 l-57 0 2 72 c1
47 -2 75 -10 80 -7 4 -58 8 -114 8 -87 0 -103 2 -103 16 0 13 11 15 73 10 143
-10 167 -16 180 -43 11 -25 67 -62 67 -44 0 5 -9 13 -21 16 -11 4 -27 22 -36
40 -15 31 -21 34 -66 37 -32 2 -52 8 -55 17 -4 10 12 12 81 10 68 -3 91 -8
114 -25z m-117 -69 c0 -12 -13 -15 -60 -15 -47 0 -60 3 -60 15 0 12 13 15 60
15 47 0 60 -3 60 -15z m-5 -45 c0 -11 -14 -16 -52 -18 -40 -2 -53 0 -53 11 0
23 12 28 60 25 32 -2 45 -7 45 -18z m0 -50 c0 -18 -62 -27 -77 -12 -18 18 3
33 40 30 25 -2 37 -8 37 -18z"/>
<path d="M1691 771 c-10 -17 -21 -21 -66 -21 -54 0 -60 -4 -56 -37 1 -7 -3
-13 -9 -13 -6 0 -10 -10 -8 -22 3 -20 10 -23 56 -26 38 -2 52 -7 52 -18 0 -8
4 -22 9 -32 5 -9 12 -24 14 -33 7 -21 49 -29 147 -29 101 0 110 9 110 111 0
41 -4 79 -8 86 -14 22 -85 45 -158 50 -66 5 -73 4 -83 -16z m197 -21 l42 -19
0 -72 c0 -94 -12 -109 -89 -109 l-56 0 0 52 0 53 -109 5 c-75 3 -111 9 -114
18 -3 9 17 12 77 12 47 0 81 4 81 10 0 6 -30 10 -70 10 -57 0 -70 3 -70 16 0
13 10 15 63 10 130 -11 167 -18 167 -30 0 -15 38 -50 63 -59 25 -9 21 7 -5 18
-13 6 -32 24 -43 42 -17 27 -26 32 -69 35 -28 2 -51 8 -54 16 -7 21 135 15
186 -8z m-110 -122 c3 -15 -5 -18 -52 -18 -40 0 -56 4 -56 13 0 23 12 28 60
25 33 -2 46 -7 48 -20z m-3 -48 c0 -18 -62 -27 -77 -12 -18 18 3 33 40 30 25
-2 37 -8 37 -18z"/>
</g>
</svg>
